<svg xmlns="http://www.w3.org/2000/svg" viewBox="0 0 218 64">
  <!--
    OrgPulse Logo — Wordmark, Light Mode (outlined text)
    Primary: #2EC4B6 (teal)  Accent: #FF6B6B (coral)  Text: #2C3E50
  -->

  <!-- Icon -->
  <g transform="translate(32, 33)">
    <!-- Teal ring -->
    <path d="M 0,-24 A 24,24 0 1,1 -21,-12"
          fill="none" stroke="#2EC4B6" stroke-width="5" stroke-linecap="round"/>
    <!-- Coral pulse spike -->
    <path d="M -21,-12 L -17,-12 L -14,-24 L -8,6 L -3,-18 L 0,-12 L 0,-24"
          fill="none" stroke="#FF6B6B" stroke-width="5" stroke-linecap="round" stroke-linejoin="round"/>
  </g>

  <!-- Wordmark (outlined paths) -->
  <g transform="translate(74, 10)">
    <path d="M12.75 34.65L12.75 34.65Q9.52 34.65 7.17 33.15Q4.83 31.65 3.55 28.90Q2.28 26.15 2.28 22.37L2.28 22.37Q2.28 19.52 2.99 17.26Q3.71 14.99 5.07 13.41Q6.43 11.83 8.36 10.98Q10.30 10.13 12.75 10.13L12.75 10.13Q16.01 10.13 18.38 11.61Q20.74 13.09 22.00 15.83Q23.26 18.56 23.26 22.34L23.26 22.34Q23.26 25.19 22.53 27.47Q21.79 29.75 20.43 31.35Q19.07 32.95 17.14 33.80Q15.20 34.65 12.75 34.65ZM12.75 33.25L12.75 33.25Q15.61 33.25 17.61 31.98Q19.62 30.70 20.67 28.27Q21.73 25.84 21.73 22.37L21.73 22.37Q21.73 17.20 19.40 14.37Q17.07 11.53 12.75 11.53L12.75 11.53Q9.93 11.53 7.92 12.80Q5.92 14.08 4.86 16.51Q3.81 18.94 3.81 22.37L3.81 22.37Q3.81 27.51 6.15 30.38Q8.50 33.25 12.75 33.25ZM29.14 34.58L29.14 34.58Q28.80 34.58 28.61 34.37Q28.42 34.17 28.42 33.83L28.42 33.83L28.42 18.46Q28.42 18.09 28.61 17.90Q28.80 17.71 29.14 17.71L29.14 17.71Q29.48 17.71 29.65 17.90Q29.82 18.09 29.82 18.46L29.82 18.46L29.82 21.76L29.48 21.76Q30.12 19.75 31.77 18.67Q33.42 17.58 35.60 17.58L35.60 17.58Q35.90 17.58 36.13 17.70Q36.35 17.82 36.35 18.16L36.35 18.16Q36.35 18.50 36.18 18.68Q36.01 18.87 35.60 18.90L35.60 18.90L35.19 18.94Q32.67 19.18 31.26 20.64Q29.85 22.10 29.85 24.51L29.85 24.51L29.85 33.83Q29.85 34.17 29.68 34.37Q29.51 34.58 29.14 34.58ZM46.34 40.77L46.34 40.77Q44.54 40.77 42.82 40.26Q41.11 39.75 39.71 38.66L39.71 38.66Q39.54 38.52 39.49 38.32Q39.44 38.11 39.51 37.93Q39.58 37.74 39.73 37.59Q39.88 37.43 40.07 37.42Q40.26 37.40 40.46 37.54L40.46 37.54Q41.96 38.59 43.33 39.02Q44.71 39.44 46.38 39.44L46.38 39.44Q48.93 39.44 50.25 38.00Q51.58 36.55 51.58 33.86L51.58 33.86L51.58 29.34L51.92 29.34Q51.44 31.52 49.74 32.76Q48.04 34 45.70 34L45.70 34Q43.42 34 41.75 32.96Q40.09 31.93 39.19 30.07Q38.28 28.22 38.28 25.81L38.28 25.81Q38.28 23.97 38.79 22.47Q39.30 20.98 40.27 19.91Q41.24 18.84 42.60 18.24Q43.96 17.65 45.70 17.65L45.70 17.65Q48.04 17.65 49.74 18.89Q51.44 20.13 51.92 22.30L51.92 22.30L51.54 22.30L51.54 18.46Q51.54 18.09 51.73 17.90Q51.92 17.71 52.26 17.71L52.26 17.71Q52.60 17.71 52.78 17.90Q52.97 18.09 52.97 18.46L52.97 18.46L52.97 33.63Q52.97 37.16 51.31 38.96Q49.64 40.77 46.34 40.77ZM45.66 32.67L45.66 32.67Q47.50 32.67 48.82 31.82Q50.15 30.97 50.86 29.43Q51.58 27.88 51.58 25.81L51.58 25.81Q51.58 22.68 49.98 20.83Q48.38 18.97 45.66 18.97L45.66 18.97Q43.86 18.97 42.52 19.80Q41.17 20.64 40.46 22.17Q39.75 23.70 39.75 25.81L39.75 25.81Q39.75 28.93 41.34 30.80Q42.94 32.67 45.66 32.67Z" fill="#2EC4B6"/>
    <g transform="translate(57.362, 0)">
      <path d="M3.98 34.58L3.98 34.58Q3.64 34.58 3.45 34.37Q3.26 34.17 3.26 33.83L3.26 33.83L3.26 11.15Q3.26 10.78 3.47 10.59Q3.67 10.40 4.01 10.40L4.01 10.40L11.93 10.40Q15.71 10.40 17.71 12.21Q19.72 14.01 19.72 17.34L19.72 17.34Q19.72 20.67 17.71 22.47Q15.71 24.28 11.93 24.28L11.93 24.28L4.69 24.28L4.69 33.83Q4.69 34.17 4.52 34.37Q4.35 34.58 3.98 34.58ZM4.69 11.73L4.69 22.95L11.90 22.95Q15.06 22.95 16.64 21.52Q18.22 20.09 18.22 17.34L18.22 17.34Q18.22 14.59 16.64 13.16Q15.06 11.73 11.90 11.73L11.90 11.73L4.69 11.73ZM29.41 34.65L29.41 34.65Q27.47 34.65 26.18 33.93Q24.89 33.22 24.24 31.82Q23.60 30.43 23.60 28.36L23.60 28.36L23.60 18.46Q23.60 18.09 23.78 17.90Q23.97 17.71 24.31 17.71L24.31 17.71Q24.65 17.71 24.84 17.90Q25.02 18.09 25.02 18.46L25.02 18.46L25.02 28.22Q25.02 30.80 26.08 32.06Q27.13 33.32 29.41 33.32L29.41 33.32Q31.89 33.32 33.44 31.67Q34.99 30.02 34.99 27.34L34.99 27.34L34.99 18.46Q34.99 18.09 35.17 17.90Q35.36 17.71 35.70 17.71L35.70 17.71Q36.04 17.71 36.23 17.90Q36.41 18.09 36.41 18.46L36.41 18.46L36.41 33.83Q36.41 34.58 35.73 34.58L35.73 34.58Q35.39 34.58 35.21 34.37Q35.02 34.17 35.02 33.83L35.02 33.83L35.02 30.26L35.43 30.26Q34.78 32.40 33.15 33.52Q31.52 34.65 29.41 34.65ZM46.68 34.65L46.68 34.65Q44.54 34.65 43.37 33.27Q42.19 31.89 42.19 29.41L42.19 29.41L42.19 10.95Q42.19 10.57 42.38 10.39Q42.57 10.20 42.91 10.20L42.91 10.20Q43.25 10.20 43.44 10.39Q43.62 10.57 43.62 10.95L43.62 10.95L43.62 29.17Q43.62 31.25 44.44 32.28Q45.25 33.32 46.82 33.32L46.82 33.32Q47.16 33.32 47.40 33.29Q47.63 33.25 47.87 33.25L47.87 33.25Q48.14 33.25 48.30 33.35Q48.45 33.46 48.45 33.76L48.45 33.76Q48.45 34.14 48.25 34.31Q48.04 34.48 47.57 34.58L47.57 34.58Q47.33 34.61 47.11 34.63Q46.89 34.65 46.68 34.65ZM56.51 34.65L56.51 34.65Q54.94 34.65 53.48 34.20Q52.02 33.76 50.63 32.71L50.63 32.71Q50.46 32.57 50.41 32.37Q50.35 32.16 50.41 31.96Q50.46 31.76 50.61 31.60Q50.76 31.45 50.98 31.45Q51.20 31.45 51.44 31.62L51.44 31.62Q52.73 32.57 54.03 32.95Q55.32 33.32 56.61 33.32L56.61 33.32Q58.82 33.32 59.99 32.47Q61.17 31.62 61.17 30.16L61.17 30.16Q61.17 29.00 60.40 28.34Q59.64 27.68 57.94 27.27L57.94 27.27L55.11 26.59Q52.97 26.08 51.97 25.02Q50.97 23.97 50.97 22.30L50.97 22.30Q50.97 20.91 51.70 19.86Q52.43 18.80 53.77 18.22Q55.11 17.65 56.88 17.65L56.88 17.65Q58.38 17.65 59.76 18.12Q61.13 18.60 62.08 19.55L62.08 19.55Q62.29 19.75 62.34 19.98Q62.39 20.20 62.32 20.40Q62.25 20.60 62.08 20.71Q61.91 20.81 61.69 20.79Q61.47 20.77 61.23 20.57L61.23 20.57Q60.28 19.75 59.16 19.36Q58.04 18.97 56.85 18.97L56.85 18.97Q54.77 18.97 53.62 19.87Q52.46 20.77 52.46 22.27L52.46 22.27Q52.46 23.43 53.18 24.14Q53.89 24.85 55.45 25.23L55.45 25.23L58.28 25.91Q60.49 26.45 61.57 27.44Q62.66 28.42 62.66 30.09L62.66 30.09Q62.66 32.16 61.00 33.41Q59.33 34.65 56.51 34.65ZM74.36 34.65L74.36 34.65Q71.91 34.65 70.14 33.63Q68.37 32.61 67.41 30.72Q66.44 28.83 66.44 26.21L66.44 26.21Q66.44 23.63 67.41 21.71Q68.37 19.79 70.09 18.72Q71.81 17.65 74.05 17.65L74.05 17.65Q75.65 17.65 76.89 18.19Q78.13 18.73 79.00 19.75Q79.87 20.77 80.33 22.24Q80.78 23.70 80.78 25.53L80.78 25.53Q80.78 25.98 80.60 26.20Q80.41 26.42 80.04 26.42L80.04 26.42L67.35 26.42L67.35 25.16L80.04 25.16L79.46 25.57Q79.46 23.49 78.85 22.02Q78.23 20.54 77.03 19.74Q75.82 18.94 74.02 18.94L74.02 18.94Q72.05 18.94 70.67 19.87Q69.29 20.81 68.59 22.41Q67.90 24.00 67.90 26.04L67.90 26.04L67.90 26.21Q67.90 29.61 69.58 31.47Q71.26 33.32 74.29 33.32L74.29 33.32Q75.65 33.32 76.84 32.96Q78.03 32.61 79.19 31.69L79.19 31.69Q79.42 31.48 79.68 31.47Q79.93 31.45 80.12 31.57Q80.31 31.69 80.39 31.88Q80.48 32.06 80.41 32.30Q80.34 32.54 80.07 32.74L80.07 32.74Q79.02 33.63 77.49 34.14Q75.96 34.65 74.36 34.65Z" fill="#2C3E50"/>
    </g>
  </g>
</svg>